<svg xmlns="http://www.w3.org/2000/svg" viewBox="0 0 32 32">
  <rect width="32" height="32" rx="7" fill="#4f46e5"/>
  <rect x="7" y="5" width="13" height="18" rx="2" fill="white" fill-opacity=".95"/>
  <rect x="12" y="5" width="8" height="7" rx="1" fill="#4f46e5" fill-opacity=".3"/>
  <path d="M18 5 L20 5 L20 12 L18 12 Z" fill="white" fill-opacity=".4"/>
  <path d="M14 5 L20 5 L20 12 L14 12 Z" fill="white" fill-opacity=".15"/>
  <rect x="9.5" y="14" width="8" height="1.5" rx=".75" fill="#4f46e5" fill-opacity=".5"/>
  <rect x="9.5" y="17" width="8" height="1.5" rx=".75" fill="#4f46e5" fill-opacity=".5"/>
  <rect x="9.5" y="20" width="5" height="1.5" rx=".75" fill="#4f46e5" fill-opacity=".5"/>
  <!-- Bookmark ribbon -->
  <path d="M21 5 h4 a1 1 0 0 1 1 1 v14 l-3-2.5 -3 2.5 V6 a1 1 0 0 1 1-1z" fill="#7c3aed"/>
</svg>
